<svg xmlns="http://www.w3.org/2000/svg"
aria-label="500px" role="img"
viewBox="0 0 512 512">
  <path d="M145.2,324.7c0.1,0.3,2.4,6.5,3.7,9.6c30.8,73,114.9,107.2,187.9,76.4S444,295.9,413.2,222.9	c-22.4-53.2-74.5-87.7-132.2-87.7c-19.4,0-38.6,3.8-56.6,11.2c-13.9,5.9-37.5,21.1-51.3,35.3l-0.1,0.1V63.9h198.2	c7.2-0.1,7.2-10.1,7.2-13.5c0-3.3,0-13.4-7.2-13.5H156.9c-5.2,0-9.4,4.2-9.4,9.3v166c0,5.4,6.7,9.2,12.9,10.6	c12.1,2.6,14.9-1.3,17.9-5.4l0.4-0.5c4.5-6.7,18.7-21,18.8-21.1c45.3-46.2,119.5-46.9,165.7-1.6c46.2,45.3,46.9,119.5,1.6,165.7	c-0.4,0.4-0.7,0.8-1.1,1.1c-21.8,21.8-52.2,34.2-83.4,34.2c-20.8,0.1-41.3-5.5-59.1-16.3l0.1-101c0-13.5,5.8-28.1,15.6-39.1	c10.9-12.5,26.8-19.7,43.4-19.6c16-0.1,31.4,6.2,42.8,17.4c11.2,11,17.5,26.1,17.4,41.8c0,33.7-26.5,60.2-60.4,60.2	c-6.5,0-18.4-2.9-18.9-3c-6.8-2-9.7,7.5-10.7,10.6c-3.7,12,1.8,14.4,3,14.8c8.8,2.9,18.1,4.2,27.4,4c47.9-0.1,86.7-38.9,86.7-86.7	c0-47.4-38.9-86.1-86.6-86.1c-23.1-0.1-45.4,9-61.9,25.2c-15.8,15.5-24.7,36.1-24.7,56.6v0.5c-0.1,2.6-0.1,63.1-0.1,82.9l-0.1-0.1	c-9-9.9-17.9-25.2-23.8-40.7c-2.3-6.1-7.5-5-14.6-2.8c-3.1,1-12.6,3.9-10.5,10.7L145.2,324.7z M247.1,301c0,2.9,2.7,5.4,4.3,7	l0.5,0.5c2.7,2.7,5.3,4,7.7,4c1.3,0,2.6-0.5,3.6-1.3c1.2-1.1,14.7-14.9,16-16.2l15.1,15.1c1.1,1.4,2.9,2.3,4.7,2.4	c2.4,0,5-1.4,7.8-4.3c6.5-6.7,3.3-10.3,1.7-12l-15.3-15.3l16-16.1c3.5-3.8,0.4-7.8-2.7-10.9c-4.5-4.5-8.8-5.6-11.6-3.1l-15.9,15.9	l-16.1-16c-0.8-0.8-1.9-1.3-3.1-1.2c-2.1,0-4.7,1.4-7.5,4.3c-4.9,4.9-6,8.4-3.4,11.1l16.1,16l-16,16	C247.8,297.9,247.1,299.4,247.1,301L247.1,301z M282.1,83.9c-25.7,0-53,5.2-73,13.9c-2.1,0.8-3.6,2.7-3.7,5	c-0.3,2.3,0.4,5.3,1.9,9.2c1.2,3.2,4.5,11.6,10.9,9.2c20.5-7.8,43.2-12.1,63.9-12.1c23.2,0,46.2,4.6,67.5,13.6	c17,7.2,33,17.6,50.5,32.7c1.1,1,2.5,1.6,4,1.7c3.4,0,6.7-3.3,9.4-6.5c4.7-5.3,7.9-9.6,3.3-13.9c-16.6-15.8-34.9-27.6-57.4-37.1	C334.9,89.2,308.6,83.9,282.1,83.9L282.1,83.9z M420.5,400.9L420.5,400.9c-3.1-3.1-5.7-4.9-8-5.6c-2.1-0.7-4.5-0.2-6,1.4l-1.5,1.5	c-67.5,67.7-177.1,67.8-244.8,0.2c-0.1-0.1-0.2-0.2-0.2-0.2c-16.6-16.6-29.1-35.1-37.1-55.1c-5.2-12.5-9-25.6-11.3-38.9	c-0.1-0.4-0.1-0.8-0.2-1.1c-1.1-5.7-6.3-6.1-13.8-4.9c-3.1,0.5-12.6,1.9-11.7,8.8v0.1C103,415.8,205,489.8,313.5,472.5	c41.5-6.6,79.8-26.2,109.5-55.9c0,0,1-1,1.6-1.6C426.6,412.8,428.4,408.9,420.5,400.9L420.5,400.9z"/>
</svg>
