<svg xmlns="http://www.w3.org/2000/svg"
viewBox="0 0 95.16 95.16"
aria-label="Instagram" role="img">
	<path d="M94.87 28a34.92 34.92 0 0 0-2.21-11.55A23.32 23.32 0 0 0 87.17 8a23.32 23.32 0 0 0-8.43-5.5A34.92 34.92 0 0 0 67.2.29C62.12.05 60.5 0 47.58 0S33 .05 28 .29A34.92 34.92 0 0 0 16.41 2.5 23.32 23.32 0 0 0 8 8a23.32 23.32 0 0 0-5.5 8.41A34.92 34.92 0 0 0 .29 28C.05 33 0 34.66 0 47.58S.05 62.12.29 67.2A34.92 34.92 0 0 0 2.5 78.74 23.32 23.32 0 0 0 8 87.17a23.32 23.32 0 0 0 8.43 5.49A34.92 34.92 0 0 0 28 94.87c5.07.23 6.69.29 19.62.29s14.54-.05 19.62-.29a34.92 34.92 0 0 0 11.55-2.21 24.33 24.33 0 0 0 13.87-13.92 34.92 34.92 0 0 0 2.21-11.54c.23-5.07.29-6.7.29-19.62S95.1 33 94.87 28zm-8.56 38.8a26.32 26.32 0 0 1-1.64 8.83 15.75 15.75 0 0 1-9 9 26.32 26.32 0 0 1-8.83 1.64c-5 .23-6.52.28-19.23.28s-14.21 0-19.23-.28a26.32 26.32 0 0 1-8.83-1.64A14.74 14.74 0 0 1 14 81.11a14.74 14.74 0 0 1-3.56-5.47 26.32 26.32 0 0 1-1.59-8.84c-.23-5-.28-6.52-.28-19.23s0-14.21.28-19.23a26.32 26.32 0 0 1 1.64-8.83A14.74 14.74 0 0 1 14 14a14.74 14.74 0 0 1 5.47-3.56A26.32 26.32 0 0 1 28.3 8.8c5-.23 6.52-.28 19.23-.28s14.21 0 19.23.28a26.32 26.32 0 0 1 8.83 1.64A14.74 14.74 0 0 1 81.11 14a14.74 14.74 0 0 1 3.56 5.47 26.32 26.32 0 0 1 1.64 8.83c.23 5 .28 6.52.28 19.23s-.05 14.26-.28 19.27zM47.58 23.15A24.43 24.43 0 1 0 72 47.58a24.43 24.43 0 0 0-24.42-24.43zm0 40.29a15.86 15.86 0 1 1 15.86-15.86 15.86 15.86 0 0 1-15.86 15.86zm31.11-41.26A5.71 5.71 0 1 1 73 16.47a5.71 5.71 0 0 1 5.69 5.71z" />
</svg>