<svg xmlns="http://www.w3.org/2000/svg"
aria-label="Linked In" role="img"
viewBox="0 0 90.56 89.29">
	<g data-name="linkedin">
		<path d="M20.51 9.68c0 5.35-3.95 9.68-10.45 9.68C3.95 19.36 0 15 0 9.68S4.08 0 10.32 0s10.06 4.2 10.19 9.68zm-20 79.61V27h19.36v62.29zM31.46 46.87c0-7.77-.25-14.26-.51-19.87h16.81l.89 8.66H49A22.37 22.37 0 0 1 68.27 25.6c12.74 0 22.29 8.54 22.29 26.88v36.81H71.2V54.77c0-8-2.8-13.5-9.81-13.5-5.35 0-8.53 3.69-9.93 7.26a13.9 13.9 0 0 0-.64 4.84v35.92H31.46z"/>
	</g>
</svg>