<svg xmlns="http://www.w3.org/2000/svg"
aria-label="twitter" role="img"
viewBox="0 0 103.36 84">
	<path d="M92.78 20.92c0 .91.06 1.83.06 2.74C92.84 51.69 71.51 84 32.5 84A60 60 0 0 1 0 74.47a42.27 42.27 0 0 0 5.06.3 42.54 42.54 0 0 0 26.34-9.08A21.22 21.22 0 0 1 11.58 51a21.22 21.22 0 0 0 9.58-.36 21.22 21.22 0 0 1-17-20.79v-.27a21.13 21.13 0 0 0 9.6 2.65A21.23 21.23 0 0 1 7.19 3.88 60.2 60.2 0 0 0 50.9 26 21.22 21.22 0 0 1 87 6.7a42.39 42.39 0 0 0 13.5-5.15 21.29 21.29 0 0 1-9.32 11.73 42.39 42.39 0 0 0 12.18-3.34 43.1 43.1 0 0 1-10.58 10.98z" />
</svg>